<svg width="65" height="66" viewBox="0 0 65 66" fill="none" xmlns="http://www.w3.org/2000/svg">
<circle cx="32.5" cy="33.2026" r="32.5" fill="#0156FF"/>
<g clip-path="url(#clip0_926_1809)">
<path d="M35.82 45.3509L33 48.1709L30.18 45.3509C24.6375 44.0709 20.5 39.1009 20.5 33.1709C20.5 26.2709 26.1 20.6709 33 20.6709C39.9 20.6709 45.5 26.2709 45.5 33.1709C45.5 39.1009 41.3625 44.0709 35.82 45.3509ZM25.5287 37.4409C27.3637 40.1784 30.1187 41.9209 33.2 41.9209C36.28 41.9209 39.0362 40.1796 40.87 37.4409C38.7897 35.4966 36.0474 34.4169 33.2 34.4209C30.3521 34.4166 27.6094 35.4963 25.5287 37.4409ZM33 31.9209C33.9946 31.9209 34.9484 31.5258 35.6517 30.8225C36.3549 30.1193 36.75 29.1655 36.75 28.1709C36.75 27.1763 36.3549 26.2225 35.6517 25.5192C34.9484 24.816 33.9946 24.4209 33 24.4209C32.0054 24.4209 31.0516 24.816 30.3483 25.5192C29.6451 26.2225 29.25 27.1763 29.25 28.1709C29.25 29.1655 29.6451 30.1193 30.3483 30.8225C31.0516 31.5258 32.0054 31.9209 33 31.9209Z" fill="white"/>
</g>
<defs>
<clipPath id="clip0_926_1809">
<rect width="30" height="30" fill="white" transform="translate(18 18.1709)"/>
</clipPath>
</defs>
</svg>
