<svg width="65" height="66" viewBox="0 0 65 66" fill="none" xmlns="http://www.w3.org/2000/svg">
<circle cx="32.5" cy="33.2026" r="32.5" fill="#0156FF"/>
<g clip-path="url(#clip0_926_1833)">
<path d="M45.2047 21.6973C45.1293 21.5095 44.9844 21.3579 44.8001 21.2742C44.6158 21.1905 44.4063 21.1811 44.2152 21.2479C44.0242 21.3148 43.8662 21.4527 43.7742 21.633C43.6823 21.8133 43.6633 22.0221 43.7214 22.216C44.9291 25.687 42.5319 28.2792 40.7041 29.6676L39.9657 28.6094C39.7174 28.2545 39.1623 27.9594 38.7307 27.9542L34.5863 27.9724C34.08 27.9877 33.5873 28.1395 33.1602 28.4118L20.948 36.9749C20.6639 37.1748 20.4707 37.4791 20.4105 37.8212C20.3503 38.1633 20.4281 38.5153 20.6269 38.8001L26.1766 46.7405C26.5926 47.332 27.2569 47.2605 27.8497 46.8471L40.0619 38.2827C40.4129 38.0344 40.8185 37.4988 40.9615 37.0893L42.2589 33.0008C42.4019 32.5926 42.3148 31.9699 42.0665 31.615L41.6167 30.9702C44.0711 29.0891 46.6191 25.765 45.2047 21.6973ZM39.5224 33.8627C39.2974 34.0202 39.0436 34.1318 38.7755 34.1912C38.5074 34.2505 38.2302 34.2565 37.9597 34.2086C37.6893 34.1608 37.431 34.0602 37.1994 33.9125C36.9679 33.7648 36.7678 33.573 36.6104 33.3479C36.2918 32.8925 36.1669 32.3292 36.2632 31.7818C36.3595 31.2344 36.669 30.7475 37.1239 30.4281C37.4805 30.1783 37.9063 30.0461 38.3416 30.05C38.777 30.054 39.2003 30.1939 39.5523 30.4502C39.1987 30.6634 38.9556 30.7882 38.9101 30.8077C38.749 30.8845 38.6187 31.0138 38.5406 31.1744C38.4626 31.335 38.4414 31.5173 38.4805 31.6915C38.5196 31.8657 38.6168 32.0214 38.756 32.1331C38.8952 32.2449 39.0683 32.3061 39.2468 32.3066C39.3586 32.3066 39.473 32.2806 39.5809 32.2299C39.8331 32.1103 40.1035 31.9686 40.3856 31.8009C40.4505 32.191 40.4039 32.5915 40.2512 32.9562C40.0985 33.321 39.8459 33.6352 39.5224 33.8627Z" fill="white"/>
</g>
<defs>
<clipPath id="clip0_926_1833">
<rect width="26" height="26" fill="white" transform="translate(20 21.1709)"/>
</clipPath>
</defs>
</svg>
