<svg width="65" height="66" viewBox="0 0 65 66" fill="none" xmlns="http://www.w3.org/2000/svg">
<circle cx="32.5" cy="33.2026" r="32.5" fill="#0156FF"/>
<path d="M32.9111 21.095C26.1059 21.095 20.5693 26.6315 20.5693 33.4367V38.5499C20.5693 39.8137 21.6764 40.8418 23.0377 40.8418H24.2719C24.5992 40.8418 24.9131 40.7118 25.1446 40.4803C25.376 40.2489 25.506 39.935 25.506 39.6076V33.2603C25.506 32.9329 25.376 32.619 25.1446 32.3876C24.9131 32.1561 24.5992 32.0261 24.2719 32.0261H23.1512C23.8374 27.2498 27.9472 23.5633 32.9111 23.5633C37.875 23.5633 41.9848 27.2498 42.671 32.0261H41.5504C41.223 32.0261 40.9091 32.1561 40.6777 32.3876C40.4462 32.619 40.3162 32.9329 40.3162 33.2603V40.8418C40.3162 42.2031 39.2091 43.3102 37.8478 43.3102H35.3795V42.076H30.4428V45.7785H37.8478C40.5704 45.7785 42.7845 43.5644 42.7845 40.8418C44.1458 40.8418 45.2529 39.8137 45.2529 38.5499V33.4367C45.2529 26.6315 39.7164 21.095 32.9111 21.095Z" fill="white"/>
</svg>
